<svg xmlns="http://www.w3.org/2000/svg" viewBox="0 0 22 35" width="22" height="35">
	<style>
		tspan { white-space:pre }
		.shp0 { fill: #2c3e50 } 
	</style>
	<g id="----All----">
		<g id="content">
			<g id="About">
				<g id="what we do">
					<g id="responsive">
						<g id="icon">
							<path id="Phone" class="shp0" d="M17 4C17.55 4 18 4.45 18 5L18 31C18 31.55 17.55 32 17 32L4.99 32C4.44 32 3.99 31.55 3.99 31L3.99 5C3.99 4.45 4.44 4 4.99 4L17 4M17 2L4.99 2C3.34 2 1.99 3.34 1.99 5L1.99 31C1.99 32.66 3.34 34 4.99 34L17 34C18.66 34 20 32.66 20 31L20 5C20 3.34 18.66 2 17 2L17 2ZM9 29C9 30.1 9.9 30.99 11 30.99C12.1 30.99 12.99 30.1 12.99 29C12.99 27.9 12.1 27 11 27C9.9 27 9 27.9 9 29ZM9 5L13 5C13.55 5 14 5.45 14 6C14 6.55 13.55 7 13 7L9 7C8.45 7 8 6.55 8 6C8 5.45 8.45 5 9 5Z" />
						</g>
					</g>
				</g>
			</g>
		</g>
	</g>
</svg>