<svg xmlns="http://www.w3.org/2000/svg" viewBox="0 0 35 21" width="35" height="21">
	<style>
		tspan { white-space:pre }
		.shp0 { fill: #2c3e50 } 
	</style>
	<g id="----All----">
		<g id="content">
			<g id="About">
				<g id="what we do">
					<g id="Marketing">
						<g id="icon">
							<path id="Graph" class="shp0" d="M4.43 17.78C4.2 17.78 3.97 17.7 3.78 17.54C3.36 17.18 3.31 16.55 3.67 16.13L12.41 6.05L21.71 10.71L30.6 3.06C31.02 2.7 31.65 2.76 32.01 3.18C32.36 3.6 32.31 4.23 31.89 4.59L22.02 13.06L12.95 8.51L5.19 17.42C4.99 17.66 4.71 17.78 4.43 17.78ZM23.99 11.51C23.99 12.89 22.87 14.01 21.49 14.01C20.11 14.01 18.99 12.89 18.99 11.51C18.99 10.13 20.11 9.01 21.49 9.01C22.87 9.01 23.99 10.13 23.99 11.51ZM33.99 3.51C33.99 4.89 32.87 6.01 31.49 6.01C30.11 6.01 28.99 4.89 28.99 3.51C28.99 2.13 30.11 1.01 31.49 1.01C32.87 1.01 33.99 2.13 33.99 3.51ZM14.99 7.51C14.99 8.89 13.87 10.01 12.49 10.01C11.11 10.01 9.99 8.89 9.99 7.51C9.99 6.13 11.11 5.01 12.49 5.01C13.87 5.01 14.99 6.13 14.99 7.51ZM6.99 16.51C6.99 17.89 5.87 19.01 4.49 19.01C3.11 19.01 1.99 17.89 1.99 16.51C1.99 15.13 3.11 14.01 4.49 14.01C5.87 14.01 6.99 15.13 6.99 16.51Z" />
						</g>
					</g>
				</g>
			</g>
		</g>
	</g>
</svg>